<?xml version="1.0" encoding="UTF-8"?>
<svg width="40px" height="39px" viewBox="0 0 40 39" version="1.1" xmlns="http://www.w3.org/2000/svg" xmlns:xlink="http://www.w3.org/1999/xlink">
    <!-- Generator: Sketch 43.2 (39069) - http://www.bohemiancoding.com/sketch -->
    <title>Github</title>
    <desc>Created with Sketch.</desc>
    <defs></defs>
    <g id="Welcome" stroke="none" stroke-width="1" fill="none" fill-rule="evenodd">
        <g id="Desktop-Copy-2" transform="translate(-167.000000, -1419.000000)">
            <g id="get-in-touch" transform="translate(50.000000, 1099.000000)">
                <g id="social-icons" transform="translate(0.000000, 320.000000)">
                    <g id="Github" transform="translate(117.889680, 0.000000)">
                        <ellipse id="Oval-1-Copy-44" fill="#4183C4" cx="19.5551601" cy="19.5" rx="19.5551601" ry="19.5"></ellipse>
                        <g id="Group-24" transform="translate(10.056940, 11.142857)" fill="#FFFFFF">
                            <path d="M10.1736652,13.4836695 C9.94008966,13.7159593 9.75322924,13.8293931 9.60287179,13.8293931 C9.45251433,13.8293931 9.26565391,13.7159593 9.03207839,13.4836695 C8.88280733,13.3340149 8.64206159,13.3340149 8.49322509,13.4836695 C8.34330219,13.6326733 8.34330219,13.8740726 8.49322509,14.0222089 C8.87107424,14.4011169 9.23675573,14.5895948 9.60287179,14.5895948 C9.96898784,14.5895948 10.3342348,14.4011169 10.7125185,14.0228596 C10.8622241,13.8740726 10.8622241,13.6326733 10.7125185,13.4836695 C10.5634647,13.3346656 10.3225017,13.3346656 10.1736652,13.4836695" id="Fill-93"></path>
                            <path d="M16.7335678,12.7024399 C16.5979854,13.2090964 16.4269864,13.6350696 16.2197017,13.9779737 C16.0126342,14.3213116 15.7230006,14.6110775 15.3490625,14.847922 C14.9755589,15.0843328 14.6137885,15.2667379 14.2641856,15.3968722 C13.9148001,15.5267897 13.4630759,15.627427 12.9094476,15.6998685 C12.3562539,15.7718761 11.8602046,15.8165556 11.4219518,15.831738 C10.984568,15.8469203 10.4326779,15.8542946 9.76715065,15.8542946 C9.10227521,15.8542946 8.55168881,15.8469203 8.11734698,15.831738 C7.68257058,15.8165556 7.18912871,15.7718761 6.63528312,15.6998685 C6.08230664,15.627427 5.63058244,15.5267897 5.28119692,15.3968722 C4.93072499,15.2667379 4.57047548,15.0843328 4.19653737,14.847922 C3.82303381,14.6110775 3.53253104,14.3213116 3.32502906,13.9779737 C3.11904804,13.6350696 2.94652807,13.2090964 2.81116291,12.7024399 C2.67536319,12.1949158 2.60757197,11.6171192 2.60757197,10.9686162 C2.60757197,9.86269081 3.01518841,8.85935473 3.82976947,7.95969238 C4.07420898,7.68510884 4.3577588,7.47711072 4.67998438,7.3361318 C5.00242724,7.19450222 5.36919514,7.11468647 5.78028806,7.09603387 C6.19094642,7.0769475 6.58270146,7.08041775 6.95598774,7.10666151 C7.3294913,7.13355595 7.79142764,7.16999358 8.3413622,7.21597439 C8.8919486,7.26152143 9.36692171,7.28407805 9.76715065,7.28407805 C10.1682487,7.28407805 10.6434391,7.26152143 11.1927218,7.21597439 C11.7433082,7.16999358 12.2054618,7.13355595 12.5787481,7.10666151 C12.9520344,7.08041775 13.3437894,7.0769475 13.7544478,7.09603387 C14.1659753,7.11468647 14.5338296,7.19450222 14.8593144,7.3361318 C15.1858855,7.47711072 15.4705217,7.68510884 15.7153958,7.95969238 C16.5306287,8.85935473 16.9375933,9.86269081 16.9375933,10.9686162 C16.9375933,11.6171192 16.8693675,12.1949158 16.7335678,12.7024399 M18.124157,3.82966091 C18.1680474,3.61775876 18.2106342,3.31801591 18.2517001,2.93195058 C18.2927659,2.54545147 18.2769045,2.09865676 18.2052023,1.59221713 C18.1341518,1.08599438 17.9998731,0.569360892 17.8030178,0.0420997594 L17.6502703,0.0117350706 C17.5488007,-0.00908643035 17.38193,-0.00214593004 17.1509618,0.0321227902 C16.9206455,0.0659577292 16.6507843,0.12777156 16.3420301,0.21669672 C16.032624,0.305838771 15.6343505,0.482170857 15.145037,0.745692978 C14.6559407,1.00834754 14.1403363,1.34235911 13.5969201,1.74599259 C12.6728302,1.4653361 11.4004411,1.17188308 9.77758007,1.17188308 C8.15493634,1.17188308 6.87841894,1.4653361 5.9478106,1.74599259 C5.40504626,1.34235911 4.88748636,1.01008266 4.39426176,0.750464572 C3.90299268,0.490846483 3.50906485,0.312562381 3.21291281,0.21669672 C2.91784717,0.12104795 2.64494405,0.0594510102 2.39289976,0.0321227902 C2.14259371,0.00457767963 1.981155,-0.00388105512 1.90967003,0.00652969534 C1.83796777,0.0165066645 1.7856034,0.0282187588 1.75214235,0.0420997594 C1.55528707,0.569360892 1.41883551,1.08599438 1.3445259,1.59221713 C1.26999901,2.09865676 1.25261665,2.54328256 1.29389976,2.92652831 C1.33474832,3.30955717 1.37863879,3.61081826 1.42622301,3.82966091 C1.47337268,4.04893734 1.52769257,4.23654774 1.5889654,4.39401034 C0.52994484,5.61900865 0,7.08670757 0,8.79689023 C0,9.74795566 0.0812625544,10.6105297 0.244439502,11.3835279 C0.406964611,12.1571768 0.636194543,12.8273689 0.931912021,13.3951886 C1.22697766,13.9632251 1.60048122,14.4609892 2.05198814,14.8886975 C2.50436418,15.3161889 2.99432958,15.6688531 3.52427442,15.9462562 C4.05335014,16.2234425 4.6595601,16.4470567 5.34225247,16.6186172 C6.024293,16.7893101 6.71850119,16.9090337 7.42465975,16.9777881 C8.13147015,17.0461086 8.90867912,17.0803773 9.75737307,17.0803773 C10.6056325,17.0803773 11.3852315,17.0461086 12.0942147,16.9777881 C12.8042843,16.9090337 13.5002307,16.7893101 14.1822713,16.6186172 C14.8645291,16.4470567 15.47226,16.2234425 16.0052467,15.9462562 C16.5386681,15.6688531 17.0325445,15.3161889 17.4879624,14.8893482 C17.942294,14.4616398 18.3177531,13.9632251 18.6128187,13.3951886 C18.9078843,12.8273689 19.1388525,12.1571768 19.3057232,11.3841786 C19.4712902,10.6105297 19.5551601,9.74795566 19.5551601,8.79689023 C19.5551601,7.09321429 19.0252153,5.62573226 17.9661947,4.39401034 C18.0272503,4.23004102 18.0798319,4.04156306 18.124157,3.82966091" id="Fill-94"></path>
                            <path d="M5.6919484,8.91428571 C5.01729537,8.91428571 4.46975089,9.73369853 4.46975089,10.7444089 C4.46975089,11.7551192 5.01729537,12.5743152 5.6919484,12.5743152 C6.36660142,12.5743152 6.91414591,11.7551192 6.91414591,10.7444089 C6.91414591,9.73369853 6.36660142,8.91428571 5.6919484,8.91428571" id="Fill-95"></path>
                            <path d="M12.9552936,8.91428571 C12.2806406,8.91428571 11.7330961,9.73369853 11.7330961,10.7444089 C11.7330961,11.7551192 12.2806406,12.5743152 12.9552936,12.5743152 C13.6299466,12.5743152 14.1774911,11.7551192 14.1774911,10.7444089 C14.1774911,9.73369853 13.6299466,8.91428571 12.9552936,8.91428571" id="Fill-96"></path>
                        </g>
                    </g>
                </g>
            </g>
        </g>
    </g>
</svg>