<?xml version="1.0" encoding="UTF-8"?>
<svg width="39px" height="39px" viewBox="0 0 39 39" version="1.1" xmlns="http://www.w3.org/2000/svg" xmlns:xlink="http://www.w3.org/1999/xlink">
    <!-- Generator: Sketch 43.2 (39069) - http://www.bohemiancoding.com/sketch -->
    <title>Linkedin</title>
    <desc>Created with Sketch.</desc>
    <defs></defs>
    <g id="Welcome" stroke="none" stroke-width="1" fill="none" fill-rule="evenodd">
        <g id="Desktop-Copy-2" transform="translate(-227.000000, -1419.000000)">
            <g id="get-in-touch" transform="translate(50.000000, 1099.000000)">
                <g id="social-icons" transform="translate(0.000000, 320.000000)">
                    <g id="Linkedin" transform="translate(177.000000, 0.000000)">
                        <circle id="Oval-1-Copy-5" fill="#0976B4" cx="19.5" cy="19.5" r="19.5"></circle>
                        <path d="M12.9035119,14.4672383 C14.2459786,14.4672383 15.3342952,13.4747467 15.3342952,12.2490977 C15.3342952,11.0223643 14.2459786,10.0285714 12.9035119,10.0285714 C11.5597452,10.0285714 10.4714286,11.0223643 10.4714286,12.2490977 C10.4714286,13.4747467 11.5597452,14.4672383 12.9035119,14.4672383" id="Fill-182" fill="#FFFFFF"></path>
                        <polygon id="Fill-183" fill="#FFFFFF" points="11.0285714 28.736149 15.3900714 28.736149 15.3900714 16.1571429 11.0285714 16.1571429"></polygon>
                        <path d="M21.5114929,21.739957 C21.5114929,20.2974174 22.1939929,18.8867607 23.8259262,18.8867607 C25.4578595,18.8867607 25.8591262,20.2974174 25.8591262,21.7054714 L25.8591262,28.5754822 L30.2011262,28.5754822 L30.2011262,21.424598 C30.2011262,16.4565011 27.2644262,15.6 25.4578595,15.6 C23.6528095,15.6 22.6572262,16.2105471 21.5114929,17.6899582 L21.5114929,15.9964761 L17.1571429,15.9964761 L17.1571429,28.5754822 L21.5114929,28.5754822 L21.5114929,21.739957 Z" id="Fill-184" fill="#FFFFFF"></path>
                    </g>
                </g>
            </g>
        </g>
    </g>
</svg>