<?xml version="1.0" encoding="UTF-8"?>
<svg width="40px" height="39px" viewBox="0 0 40 39" version="1.1" xmlns="http://www.w3.org/2000/svg" xmlns:xlink="http://www.w3.org/1999/xlink">
    <!-- Generator: Sketch 43.2 (39069) - http://www.bohemiancoding.com/sketch -->
    <title>SO</title>
    <desc>Created with Sketch.</desc>
    <defs></defs>
    <g id="Welcome" stroke="none" stroke-width="1" fill="none" fill-rule="evenodd">
        <g id="Desktop-Copy-2" transform="translate(-50.000000, -1419.000000)">
            <g id="get-in-touch" transform="translate(50.000000, 1099.000000)">
                <g id="social-icons" transform="translate(0.000000, 320.000000)">
                    <g id="SO" transform="translate(0.341637, 0.000000)">
                        <ellipse id="Oval-1" fill="#55ACEE" cx="19.5551601" cy="19.5" rx="19.5551601" ry="19.5"></ellipse>
                        <g id="so-icon" transform="translate(10.615658, 8.000000)" fill-rule="nonzero" fill="#FFFFFF">
                            <g id="Group">
                                <polygon id="Shape" points="14.6186741 18.5267497 14.6186741 13.1405267 16.422581 13.1405267 16.422581 20.3144185 0.140564174 20.3144185 0.140564174 13.1405267 1.94447107 13.1405267 1.94447107 18.5267497"></polygon>
                                <path d="M3.93579686,12.6297642 L12.7913398,14.463866 L13.1661776,12.6994136 L4.31063466,10.8653119 L3.93579686,12.6297642 Z M5.10716498,8.45079811 L13.3067418,12.2350841 L14.0564174,10.6099306 L5.85684057,6.80242815 L5.10716498,8.45079811 Z M7.37961912,4.45756384 L14.3375457,10.192034 L15.4854865,8.82226176 L8.52755987,3.08779162 L7.37961912,4.45756384 Z M11.8776727,0.208948305 L10.4251762,1.27690631 L15.8134695,8.47401459 L17.265966,7.40605659 L11.8776727,0.208948305 Z M3.74837797,16.7158644 L12.7913398,16.7158644 L12.7913398,14.9281956 L3.74837797,14.9281956 L3.74837797,16.7158644 Z" id="Shape"></path>
                            </g>
                        </g>
                    </g>
                </g>
            </g>
        </g>
    </g>
</svg>