<?xml version="1.0" encoding="UTF-8"?>
<svg width="40px" height="39px" viewBox="0 0 40 39" version="1.1" xmlns="http://www.w3.org/2000/svg" xmlns:xlink="http://www.w3.org/1999/xlink">
    <!-- Generator: Sketch 43.2 (39069) - http://www.bohemiancoding.com/sketch -->
    <title>Twitter</title>
    <desc>Created with Sketch.</desc>
    <defs></defs>
    <g id="Welcome" stroke="none" stroke-width="1" fill="none" fill-rule="evenodd">
        <g id="Desktop-Copy-2" transform="translate(-110.000000, -1419.000000)">
            <g id="get-in-touch" transform="translate(50.000000, 1099.000000)">
                <g id="social-icons" transform="translate(0.000000, 320.000000)">
                    <g id="Twitter" transform="translate(60.000000, 0.000000)">
                        <ellipse id="Oval-1" fill="#55ACEE" cx="19.5551601" cy="19.5" rx="19.5551601" ry="19.5"></ellipse>
                        <path d="M29.5126154,12.0416029 C28.9606633,12.3941505 27.6933896,12.9064495 27.0684066,12.9064495 L27.0684066,12.9075019 C26.3547737,12.1641 25.350073,11.7 24.2358262,11.7 C22.0717094,11.7 20.3168603,13.449899 20.3168603,15.6070695 C20.3168603,15.9067876 20.3516871,16.199139 20.416064,16.4794933 L20.4154308,16.4794933 C17.4798474,16.4026695 14.2692377,14.93544 12.3364554,12.4242486 C11.1481224,14.475339 12.1764631,16.75648 13.5249994,17.5876505 C13.0633858,17.622379 12.2136117,17.5346105 11.8136311,17.14544 C11.786825,18.5068 12.4432576,20.310581 14.8368092,20.9649514 C14.3758289,21.212261 13.5598262,21.1413305 13.2050149,21.0887114 C13.3295471,22.2379114 14.9434003,23.7402905 16.7081697,23.7402905 C16.0791764,24.4658019 13.712642,25.781699 11.0569395,25.3630619 C12.8605461,26.4573276 14.9626078,27.0910714 17.1875132,27.0910714 C23.5101621,27.0910714 28.42032,21.981341 28.1560584,15.6777895 C28.1550031,15.6708438 28.1550031,15.6638981 28.1543699,15.656321 C28.1550031,15.6401143 28.1560584,15.6239076 28.1560584,15.6070695 C28.1560584,15.5874952 28.1543699,15.5689733 28.1537367,15.5500305 C28.7293288,15.1574924 29.5016397,14.4631314 30.0533808,13.5492438 C29.7333963,13.7249914 28.7734428,14.0769076 27.8801879,14.1642552 C28.4534583,13.8556971 29.3028103,12.845201 29.5126154,12.0416029" id="Fill-1" fill="#FFFFFF"></path>
                    </g>
                </g>
            </g>
        </g>
    </g>
</svg>