<svg xmlns="http://www.w3.org/2000/svg" width="993" height="993" viewBox="0 0 993 993"><path d="M496.5 0C222.3 0 0 222.3 0 496.5S222.3 993 496.5 993 993 770.7 993 496.5 770.7 0 496.5 0zm-259 544.1c23.1 35.1 78.6 47 110.5 17 3.4-3.2 4.9-6.8 9.5-6 5 .8 11.7 12 15.2 15.7 6.9 7.4 13.8 14.8 20.6 22.3 1.3 1.4 7.1 5.9 7.2 8.1.4 7.7-27.4 20.2-33.3 22.9-23.3 11-49.1 16.2-74.9 14.8-40.9-2.3-80.3-20.1-106.2-52.3-23.3-29-31.3-63.4-29.8-99.8 3.6-85.2 80.9-138.2 161.3-131.7 33 3 60.3 18.2 84.2 40.2L380 417.1c-5.6 5.6-11.2 11.1-16.8 16.6-7.8 7.5-7.3 9.3-15.6 2-26.5-23.2-61.7-27.2-90.9-5.9-35.3 25.7-43.2 77.9-19.2 114.3zm599.2 88.5h-67.8c0-25.8-.1-51.5-.1-77.3 0-21.5-.1-43.1-.2-64.6-.1-16.7.9-34.1-6.4-49.7-11.1-23.7-39.4-30.7-63.2-22.7-18.1 6.1-32.6 22.2-35.3 40.6-4.3 29.1-3.5 63.1-3.4 92.5v81.1c-22.6-.1-45.3-.3-67.9-.5-.1-24.9-.1-49.9-.2-74.8 0-16.3 0-32.5-.1-48.8-.1-17.2 1.5-35.5-.7-52.6-2.2-18-12.9-34.7-31.1-39-21-5-46.2.7-60.4 17.5-12 14.2-15.7 32.1-15.8 50.1-.2 23.4-.2 46.8-.2 70.2 0 26-.1 51.9-.1 77.9h-68V360.9c15.7 0 31.4-.1 47.1.1 6.9.1 14.2-1.6 17.1 3.4 2.5 4.3.3 17.9.3 22.6.1 5.2-.5 10.9.4 16-.3-1.5 6.4-9.7 7.4-11.1 4-5.7 8.9-11 14.1-15.7 9.1-8.3 19.7-14.6 31.5-18.1 15.9-4.7 34.3-5.3 50.6-2.6 30.4 5 51.6 21.1 65.2 48.7 17.6-26.2 38.7-44.4 70.9-48.8 35.5-4.9 74.3 3.5 95.9 34.5 15.8 22.6 19.9 51 20.2 78 .3 25.9.3 51.7.4 77.6-.1 29.1-.2 58.1-.2 87.1z"/></svg>