<?xml version="1.0" standalone="no"?>
<!DOCTYPE svg PUBLIC "-//W3C//DTD SVG 20010904//EN"
 "http://www.w3.org/TR/2001/REC-SVG-20010904/DTD/svg10.dtd">
<svg version="1.0" xmlns="http://www.w3.org/2000/svg"
 width="1024.000000pt" height="1024.000000pt" viewBox="0 0 1024.000000 1024.000000"
 preserveAspectRatio="xMidYMid meet">
<metadata>
Created by potrace 1.11, written by Peter Selinger 2001-2013
</metadata>
<g transform="translate(0.000000,1024.000000) scale(0.100000,-0.100000)"
fill="#000000" stroke="none">
<path d="M4858 10085 c-2 -2 -48 -6 -103 -10 -55 -3 -118 -8 -140 -11 -72 -7
-140 -15 -165 -19 -14 -2 -45 -7 -70 -10 -25 -3 -67 -10 -95 -15 -27 -5 -63
-12 -80 -15 -89 -15 -212 -42 -345 -77 -1058 -274 -2014 -911 -2687 -1788 -41
-54 -199 -277 -233 -330 -167 -257 -351 -620 -457 -900 -103 -270 -209 -644
-248 -870 -8 -50 -15 -84 -20 -109 -2 -13 -7 -49 -11 -80 -3 -31 -8 -58 -9
-61 -2 -3 -6 -39 -10 -80 -4 -41 -9 -83 -11 -93 -19 -100 -26 -674 -11 -862
11 -126 22 -234 32 -305 2 -14 7 -45 10 -70 3 -25 10 -67 15 -95 5 -27 12 -63
15 -80 5 -33 12 -67 20 -105 3 -14 7 -34 9 -45 57 -278 197 -701 323 -975 205
-446 477 -871 777 -1214 203 -231 405 -425 657 -631 151 -123 437 -318 619
-423 212 -121 340 -183 680 -327 113 -48 499 -168 608 -190 9 -1 44 -10 77
-18 131 -33 371 -75 535 -92 36 -4 73 -9 83 -11 143 -26 771 -26 1007 2 73 8
273 35 300 39 112 20 162 30 280 56 201 45 539 145 655 194 17 7 62 25 100 40
69 28 125 51 195 82 101 44 428 212 460 237 8 6 31 20 50 30 99 54 414 272
545 378 525 423 955 934 1272 1513 230 421 431 975 507 1399 3 16 10 52 15 80
11 53 19 106 27 166 3 19 6 44 8 56 2 11 7 52 11 90 4 38 9 77 11 87 11 62 19
270 19 502 -1 325 -7 428 -46 700 -25 176 -23 166 -59 334 -166 790 -533 1537
-1064 2166 -118 140 -100 121 -247 271 -209 214 -439 411 -654 562 -44 31 -84
60 -90 65 -14 12 -218 143 -252 162 -15 8 -44 25 -63 37 -183 110 -439 231
-755 357 -26 10 -64 23 -206 71 -187 62 -532 146 -719 175 -132 20 -238 33
-420 51 -60 6 -646 14 -652 9z m-1487 -3619 c287 -26 566 -148 768 -334 l74
-68 -232 -232 c-128 -128 -236 -232 -241 -232 -4 0 -23 15 -42 34 -94 94 -240
183 -345 212 -53 13 -234 21 -251 10 -4 -2 -28 -7 -52 -11 -66 -10 -192 -61
-255 -103 -158 -107 -258 -234 -317 -402 -53 -149 -62 -359 -22 -510 19 -75
73 -197 112 -255 98 -146 280 -275 442 -314 87 -21 146 -27 225 -25 123 3 201
22 305 75 67 34 101 59 162 123 56 58 46 63 183 -88 6 -6 69 -74 140 -151 176
-189 175 -188 175 -195 0 -9 -79 -75 -147 -122 -30 -21 -105 -63 -166 -93
-337 -164 -699 -203 -1067 -113 -568 137 -974 583 -1058 1161 -14 100 -7 406
12 502 38 192 113 373 227 541 77 114 234 267 354 345 101 66 242 139 267 139
8 0 18 4 24 9 27 27 301 89 429 98 44 3 81 6 82 7 4 4 139 -2 214 -8z m2664
-6 c140 -23 202 -43 296 -91 136 -71 253 -189 322 -327 l34 -69 51 76 c191
288 463 425 847 424 66 -1 138 -4 160 -7 22 -4 56 -9 75 -12 163 -27 330 -115
453 -239 162 -163 261 -431 282 -760 4 -69 8 -1262 5 -1702 l0 -63 -339 0
-339 0 -1 818 c-1 449 -3 828 -5 842 -2 14 -7 49 -11 79 -22 166 -104 305
-219 370 -73 42 -155 61 -262 62 -170 0 -281 -41 -389 -146 -76 -74 -116 -137
-150 -238 -48 -143 -51 -204 -50 -1025 l0 -762 -340 2 -339 3 -2 865 c0 476
-4 881 -8 900 -55 283 -195 405 -461 401 -178 -3 -298 -44 -409 -142 -93 -82
-174 -242 -192 -379 -4 -30 -8 -62 -10 -70 -1 -8 -3 -367 -3 -797 l-1 -783
-340 0 -340 0 0 1358 0 1358 320 0 c218 0 320 -3 321 -10 1 -6 3 -99 4 -206 1
-107 3 -199 4 -205 1 -5 15 15 32 45 39 68 87 130 153 195 148 147 316 225
518 241 40 4 74 7 75 8 7 6 205 -5 258 -14z"/>
</g>
</svg>
